<svg width="105" height="105" viewBox="0 0 105 105" fill="none" xmlns="http://www.w3.org/2000/svg">
<path d="M105 52.5C105 81.4949 81.4949 105 52.5 105C23.5051 105 0 81.4949 0 52.5C0 23.5051 23.5051 0 52.5 0C81.4949 0 105 23.5051 105 52.5Z" fill="#0075FF"/>
<path d="M80.7504 54.6106C81.9973 52.9629 82.6875 50.9442 82.6875 48.8438C82.6875 45.5114 80.8246 42.3571 77.8262 40.5981C77.0543 40.1453 76.1754 39.907 75.2805 39.9078H57.4828L57.9281 30.7864C58.032 28.5821 57.2527 26.4891 55.7387 24.8934C54.9956 24.1069 54.0992 23.4811 53.1048 23.0547C52.1103 22.6284 51.039 22.4105 49.957 22.4145C46.0977 22.4145 42.6836 25.0121 41.6594 28.7305L35.284 51.8125H35.2617V83.5782H70.3152C70.998 83.5782 71.666 83.4446 72.282 83.1774C75.8148 81.6707 78.0934 78.2196 78.0934 74.3899C78.0934 73.4547 77.9598 72.5344 77.6926 71.6438C78.9395 69.9961 79.6297 67.9774 79.6297 65.877C79.6297 64.9418 79.4961 64.0215 79.2289 63.1309C80.4758 61.4832 81.166 59.4645 81.166 57.3641C81.1512 56.4289 81.0176 55.5012 80.7504 54.6106ZM23.3125 54.1875V81.2032C23.3125 82.5168 24.3738 83.5782 25.6875 83.5782H30.5117V51.8125H25.6875C24.3738 51.8125 23.3125 52.8739 23.3125 54.1875Z" fill="white"/>
</svg>
